# xmcd CD database file
#
# Track frame offsets:
#       150
#       35035
#       54757
#       85285
#       110705
#       162217
#       180062
#       205232
#       231812
#       256922
#       282280
#
# Disc length: 4147 seconds
#
# Revision: 0
# Processed by: cddbd v1.4PL0 Copyright (c) Steve Scherf et al.
# Submitted via: jack 2.99.7
#
DISCID=8b10310b
DTITLE=George Thorogood and the Destroyers - Viva Las Vegas
DYEAR=1993
DGENRE=
TTITLE0=Who Do You Love
TTITLE1=No Particular Place to Go
TTITLE2=Night Time
TTITLE3=I Drink Alone
TTITLE4=One Bourbon, One Scotch, One Beer
TTITLE5=I'm Ready
TTITLE6=Get a Haircut
TTITLE7=Bad to the Bone
TTITLE8=Move It On Over
TTITLE9=You Talk Too Much
TTITLE10=Johnny B. Good
EXTD=YEAR: 1993
EXTT0=
EXTT1=
EXTT2=
EXTT3=
EXTT4=
EXTT5=
EXTT6=
EXTT7=
EXTT8=
EXTT9=
EXTT10=
PLAYORDER=
